ffmpeg started on 2026-01-10 at 18:08:07
Report written to "D:\Convert\FFMetrics\reports\psnr_report-6.txt"
Log level: 32
Command line:
ffmpeg -hide_banner -nostdin -r 24000/1001 -i "F:\\Convert\\files\\JamClub_Ore_dake_Level_Up_na_Ken_Season_2_13_1080p_HEVC(71).mkv" -r 24000/1001 -i "F:\\Convert\\files\\JamClub_Ore_dake_Level_Up_na_Ken_Season_2_13_1080p.mp4" -lavfi "[0:v]settb=AVTB,setpts=PTS-STARTPTS,format=pix_fmts=yuv420p10le,fps=24000/1001,scale=1920:1080:flags=lanczos:param0=3:out_range=limited:out_color_matrix=bt709:out_chroma_loc=left,setsar=1/1,setdar=(1920/1080)*(1/1),colorspace=format=yuv420p10:range=tv:primaries=bt709:trc=bt709:space=bt709:fast=0[main];[1:v]settb=AVTB,setpts=PTS-STARTPTS,format=pix_fmts=yuv420p,fps=24000/1001,scale=1920:1080:flags=lanczos:param0=3:out_range=limited:out_color_matrix=bt709:out_chroma_loc=left,setsar=1.000,setdar=1.778[ref];[main][ref]psnr=eof_action=endall:stats_file='D\\:/Convert/FFMetrics/logs/psnr_logfile-6.txt'" -f null -
Input #0, matroska,webm, from 'F:\Convert\files\JamClub_Ore_dake_Level_Up_na_Ken_Season_2_13_1080p_HEVC(71).mkv':
  Metadata:
    COMPATIBLE_BRANDS: isomiso2avc1mp41
    MAJOR_BRAND     : isom
    MINOR_VERSION   : 512
    ENCODER         : Lavf61.7.100
  Duration: 00:24:02.33, start: -0.001000, bitrate: 1905 kb/s
  Stream #0:0: Video: hevc (Main 10), yuv420p10le(tv, bt709, progressive), 1920x1080 [SAR 1:1 DAR 16:9], 23.98 fps, 23.98 tbr, 1k tbn (default)
      Metadata:
        HANDLER_NAME    : VideoHandler
        VENDOR_ID       : [0][0][0][0]
        ENCODER         : Lavc61.19.100 libx265
        BPS             : 1706758
        DURATION        : 00:24:02.232708333
        NUMBER_OF_FRAMES: 34579
        NUMBER_OF_BYTES : 307692729
        _STATISTICS_WRITING_APP: mkvpropedit v94.0 ('Initiate') 64-bit
        _STATISTICS_WRITING_DATE_UTC: 2026-01-10 14:26:57
        _STATISTICS_TAGS: BPS DURATION NUMBER_OF_FRAMES NUMBER_OF_BYTES
  Stream #0:1(eng): Audio: aac (LC), 48000 Hz, stereo, fltp (default)
      Metadata:
        HANDLER_NAME    : SoundHandler
        VENDOR_ID       : [0][0][0][0]
        ENCODER         : Lavc61.19.100 aac
        BPS             : 194704
        DURATION        : 00:24:02.285000000
        NUMBER_OF_FRAMES: 67608
        NUMBER_OF_BYTES : 35102363
        _STATISTICS_WRITING_APP: mkvpropedit v94.0 ('Initiate') 64-bit
        _STATISTICS_WRITING_DATE_UTC: 2026-01-10 14:26:57
        _STATISTICS_TAGS: BPS DURATION NUMBER_OF_FRAMES NUMBER_OF_BYTES
Input #1, mov,mp4,m4a,3gp,3g2,mj2, from 'F:\Convert\files\JamClub_Ore_dake_Level_Up_na_Ken_Season_2_13_1080p.mp4':
  Metadata:
    major_brand     : isom
    minor_version   : 512
    compatible_brands: isomiso2avc1mp41
    encoder         : Lavf60.16.100
  Duration: 00:24:02.31, start: 0.000000, bitrate: 5143 kb/s
  Stream #1:0[0x1](und): Video: h264 (High) (avc1 / 0x31637661), yuv420p(progressive), 1920x1080 [SAR 1:1 DAR 16:9], 4945 kb/s, 23.98 fps, 23.98 tbr, 90k tbn (default)
      Metadata:
        handler_name    : VideoHandler
        vendor_id       : [0][0][0][0]
  Stream #1:1[0x2](eng): Audio: aac (LC) (mp4a / 0x6134706D), 48000 Hz, stereo, fltp, 191 kb/s (default)
      Metadata:
        handler_name    : SoundHandler
        vendor_id       : [0][0][0][0]
Stream mapping:
  Stream #0:0 (hevc) -> settb:default
  Stream #1:0 (h264) -> settb:default
  psnr:default -> Stream #0:0 (wrapped_avframe)
  Stream #0:1 -> #0:1 (aac (native) -> pcm_s16le (native))
Output #0, null, to 'pipe:':
  Metadata:
    COMPATIBLE_BRANDS: isomiso2avc1mp41
    MAJOR_BRAND     : isom
    MINOR_VERSION   : 512
    encoder         : Lavf61.7.100
  Stream #0:0: Video: wrapped_avframe, yuv420p10le(tv, bt709, progressive), 1920x1080 [SAR 1:1 DAR 16:9], q=2-31, 200 kb/s, 23.98 fps, 23.98 tbn
      Metadata:
        encoder         : Lavc61.19.100 wrapped_avframe
  Stream #0:1(eng): Audio: pcm_s16le, 48000 Hz, stereo, s16, 1536 kb/s (default)
      Metadata:
        HANDLER_NAME    : SoundHandler
        VENDOR_ID       : [0][0][0][0]
        _STATISTICS_TAGS: BPS DURATION NUMBER_OF_FRAMES NUMBER_OF_BYTES
        BPS             : 194704
        DURATION        : 00:24:02.285000000
        NUMBER_OF_FRAMES: 67608
        NUMBER_OF_BYTES : 35102363
        _STATISTICS_WRITING_APP: mkvpropedit v94.0 ('Initiate') 64-bit
        _STATISTICS_WRITING_DATE_UTC: 2026-01-10 14:26:57
        encoder         : Lavc61.19.100 pcm_s16le
frame=  105 fps=0.0 q=-0.0 size=N/A time=00:00:04.37 bitrate=N/A speed=8.61x    frame=  254 fps=245 q=-0.0 size=N/A time=00:00:10.59 bitrate=N/A speed=10.2x    frame=  421 fps=272 q=-0.0 size=N/A time=00:00:17.55 bitrate=N/A speed=11.4x    frame=  619 fps=301 q=-0.0 size=N/A time=00:00:25.81 bitrate=N/A speed=12.6x    frame=  843 fps=327 q=-0.0 size=N/A time=00:00:35.16 bitrate=N/A speed=13.6x    frame= 1031 fps=333 q=-0.0 size=N/A time=00:00:43.00 bitrate=N/A speed=13.9x    frame= 1237 fps=343 q=-0.0 size=N/A time=00:00:51.59 bitrate=N/A speed=14.3x    frame= 1452 fps=352 q=-0.0 size=N/A time=00:01:00.56 bitrate=N/A speed=14.7x    frame= 1659 fps=358 q=-0.0 size=N/A time=00:01:09.19 bitrate=N/A speed=14.9x    frame= 1844 fps=357 q=-0.0 size=N/A time=00:01:16.91 bitrate=N/A speed=14.9x    frame= 2026 fps=357 q=-0.0 size=N/A time=00:01:24.50 bitrate=N/A speed=14.9x    frame= 2203 fps=356 q=-0.0 size=N/A time=00:01:31.88 bitrate=N/A speed=14.9x    frame= 2388 fps=356 q=-0.0 size=N/A time=00:01:39.59 bitrate=N/A speed=14.8x    frame= 2572 fps=356 q=-0.0 size=N/A time=00:01:47.27 bitrate=N/A speed=14.9x    frame= 2747 fps=355 q=-0.0 size=N/A time=00:01:54.57 bitrate=N/A speed=14.8x    frame= 2896 fps=351 q=-0.0 size=N/A time=00:02:00.78 bitrate=N/A speed=14.6x    frame= 3056 fps=349 q=-0.0 size=N/A time=00:02:07.46 bitrate=N/A speed=14.5x    frame= 3228 fps=348 q=-0.0 size=N/A time=00:02:14.63 bitrate=N/A speed=14.5x    frame= 3396 fps=347 q=-0.0 size=N/A time=00:02:21.64 bitrate=N/A speed=14.5x    frame= 3560 fps=345 q=-0.0 size=N/A time=00:02:28.48 bitrate=N/A speed=14.4x    frame= 3709 fps=342 q=-0.0 size=N/A time=00:02:34.69 bitrate=N/A speed=14.3x    frame= 3852 fps=340 q=-0.0 size=N/A time=00:02:40.66 bitrate=N/A speed=14.2x    frame= 4023 fps=339 q=-0.0 size=N/A time=00:02:47.79 bitrate=N/A speed=14.1x    frame= 4225 fps=342 q=-0.0 size=N/A time=00:02:56.21 bitrate=N/A speed=14.2x    frame= 4441 fps=344 q=-0.0 size=N/A time=00:03:05.22 bitrate=N/A speed=14.4x    frame= 4659 fps=347 q=-0.0 size=N/A time=00:03:14.31 bitrate=N/A speed=14.5x    frame= 4873 fps=350 q=-0.0 size=N/A time=00:03:23.24 bitrate=N/A speed=14.6x    frame= 5061 fps=350 q=-0.0 size=N/A time=00:03:31.08 bitrate=N/A speed=14.6x    frame= 5269 fps=352 q=-0.0 size=N/A time=00:03:39.76 bitrate=N/A speed=14.7x    frame= 5446 fps=352 q=-0.0 size=N/A time=00:03:47.14 bitrate=N/A speed=14.7x    frame= 5611 fps=351 q=-0.0 size=N/A time=00:03:54.02 bitrate=N/A speed=14.6x    frame= 5786 fps=351 q=-0.0 size=N/A time=00:04:01.32 bitrate=N/A speed=14.6x    frame= 5990 fps=352 q=-0.0 size=N/A time=00:04:09.83 bitrate=N/A speed=14.7x    frame= 6198 fps=353 q=-0.0 size=N/A time=00:04:18.50 bitrate=N/A speed=14.7x    frame= 6404 fps=355 q=-0.0 size=N/A time=00:04:27.10 bitrate=N/A speed=14.8x    frame= 6619 fps=356 q=-0.0 size=N/A time=00:04:36.06 bitrate=N/A speed=14.9x    frame= 6832 fps=358 q=-0.0 size=N/A time=00:04:44.95 bitrate=N/A speed=14.9x    frame= 7032 fps=359 q=-0.0 size=N/A time=00:04:53.29 bitrate=N/A speed=  15x    frame= 7233 fps=360 q=-0.0 size=N/A time=00:05:01.67 bitrate=N/A speed=  15x    frame= 7427 fps=360 q=-0.0 size=N/A time=00:05:09.76 bitrate=N/A speed=  15x    frame= 7616 fps=360 q=-0.0 size=N/A time=00:05:17.65 bitrate=N/A speed=  15x    frame= 7820 fps=361 q=-0.0 size=N/A time=00:05:26.15 bitrate=N/A speed=  15x    frame= 8036 fps=362 q=-0.0 size=N/A time=00:05:35.16 bitrate=N/A speed=15.1x    frame= 8234 fps=363 q=-0.0 size=N/A time=00:05:43.42 bitrate=N/A speed=15.1x    frame= 8445 fps=364 q=-0.0 size=N/A time=00:05:52.22 bitrate=N/A speed=15.2x    frame= 8674 fps=365 q=-0.0 size=N/A time=00:06:01.77 bitrate=N/A speed=15.2x    frame= 8881 fps=366 q=-0.0 size=N/A time=00:06:10.41 bitrate=N/A speed=15.3x    frame= 9094 fps=367 q=-0.0 size=N/A time=00:06:19.29 bitrate=N/A speed=15.3x    frame= 9286 fps=367 q=-0.0 size=N/A time=00:06:27.30 bitrate=N/A speed=15.3x    frame= 9473 fps=367 q=-0.0 size=N/A time=00:06:35.10 bitrate=N/A speed=15.3x    frame= 9682 fps=368 q=-0.0 size=N/A time=00:06:43.82 bitrate=N/A speed=15.3x    frame= 9893 fps=369 q=-0.0 size=N/A time=00:06:52.62 bitrate=N/A speed=15.4x    frame=10101 fps=370 q=-0.0 size=N/A time=00:07:01.29 bitrate=N/A speed=15.4x    frame=10323 fps=370 q=-0.0 size=N/A time=00:07:10.55 bitrate=N/A speed=15.5x    frame=10537 fps=371 q=-0.0 size=N/A time=00:07:19.48 bitrate=N/A speed=15.5x    frame=10759 fps=373 q=-0.0 size=N/A time=00:07:28.73 bitrate=N/A speed=15.5x    frame=10954 fps=372 q=-0.0 size=N/A time=00:07:36.87 bitrate=N/A speed=15.5x    frame=11137 fps=372 q=-0.0 size=N/A time=00:07:44.50 bitrate=N/A speed=15.5x    frame=11320 fps=372 q=-0.0 size=N/A time=00:07:52.13 bitrate=N/A speed=15.5x    frame=11524 fps=372 q=-0.0 size=N/A time=00:08:00.64 bitrate=N/A speed=15.5x    frame=11710 fps=372 q=-0.0 size=N/A time=00:08:08.40 bitrate=N/A speed=15.5x    frame=11872 fps=371 q=-0.0 size=N/A time=00:08:15.16 bitrate=N/A speed=15.5x    frame=12062 fps=371 q=-0.0 size=N/A time=00:08:23.08 bitrate=N/A speed=15.5x    frame=12271 fps=372 q=-0.0 size=N/A time=00:08:31.80 bitrate=N/A speed=15.5x    frame=12482 fps=372 q=-0.0 size=N/A time=00:08:40.60 bitrate=N/A speed=15.5x    frame=12676 fps=372 q=-0.0 size=N/A time=00:08:48.69 bitrate=N/A speed=15.5x    frame=12868 fps=372 q=-0.0 size=N/A time=00:08:56.70 bitrate=N/A speed=15.5x    frame=13052 fps=372 q=-0.0 size=N/A time=00:09:04.37 bitrate=N/A speed=15.5x    frame=13231 fps=372 q=-0.0 size=N/A time=00:09:11.84 bitrate=N/A speed=15.5x    frame=13401 fps=371 q=-0.0 size=N/A time=00:09:18.93 bitrate=N/A speed=15.5x    frame=13603 fps=371 q=-0.0 size=N/A time=00:09:27.35 bitrate=N/A speed=15.5x    frame=13818 fps=372 q=-0.0 size=N/A time=00:09:36.32 bitrate=N/A speed=15.5x    frame=14015 fps=372 q=-0.0 size=N/A time=00:09:44.54 bitrate=N/A speed=15.5x    frame=14218 fps=373 q=-0.0 size=N/A time=00:09:53.00 bitrate=N/A speed=15.5x    frame=14442 fps=373 q=-0.0 size=N/A time=00:10:02.35 bitrate=N/A speed=15.6x    frame=14645 fps=374 q=-0.0 size=N/A time=00:10:10.81 bitrate=N/A speed=15.6x    frame=14861 fps=374 q=-0.0 size=N/A time=00:10:19.82 bitrate=N/A speed=15.6x    frame=15046 fps=374 q=-0.0 size=N/A time=00:10:27.54 bitrate=N/A speed=15.6x    frame=15232 fps=374 q=-0.0 size=N/A time=00:10:35.30 bitrate=N/A speed=15.6x    frame=15441 fps=374 q=-0.0 size=N/A time=00:10:44.01 bitrate=N/A speed=15.6x    frame=15652 fps=375 q=-0.0 size=N/A time=00:10:52.81 bitrate=N/A speed=15.6x    frame=15829 fps=374 q=-0.0 size=N/A time=00:11:00.20 bitrate=N/A speed=15.6x    frame=16032 fps=375 q=-0.0 size=N/A time=00:11:08.66 bitrate=N/A speed=15.6x    frame=16242 fps=375 q=-0.0 size=N/A time=00:11:17.42 bitrate=N/A speed=15.6x    frame=16453 fps=375 q=-0.0 size=N/A time=00:11:26.22 bitrate=N/A speed=15.7x    frame=16643 fps=375 q=-0.0 size=N/A time=00:11:34.15 bitrate=N/A speed=15.7x    frame=16856 fps=376 q=-0.0 size=N/A time=00:11:43.03 bitrate=N/A speed=15.7x    frame=17060 fps=376 q=-0.0 size=N/A time=00:11:51.54 bitrate=N/A speed=15.7x    frame=17232 fps=375 q=-0.0 size=N/A time=00:11:58.71 bitrate=N/A speed=15.7x    frame=17422 fps=375 q=-0.0 size=N/A time=00:12:06.64 bitrate=N/A speed=15.7x    frame=17604 fps=375 q=-0.0 size=N/A time=00:12:14.23 bitrate=N/A speed=15.6x    frame=17799 fps=375 q=-0.0 size=N/A time=00:12:22.36 bitrate=N/A speed=15.6x    frame=18001 fps=375 q=-0.0 size=N/A time=00:12:30.79 bitrate=N/A speed=15.6x    frame=18207 fps=375 q=-0.0 size=N/A time=00:12:39.38 bitrate=N/A speed=15.7x    frame=18420 fps=376 q=-0.0 size=N/A time=00:12:48.26 bitrate=N/A speed=15.7x    frame=18636 fps=376 q=-0.0 size=N/A time=00:12:57.27 bitrate=N/A speed=15.7x    frame=18852 fps=377 q=-0.0 size=N/A time=00:13:06.28 bitrate=N/A speed=15.7x    frame=19063 fps=377 q=-0.0 size=N/A time=00:13:15.08 bitrate=N/A speed=15.7x    frame=19252 fps=377 q=-0.0 size=N/A time=00:13:22.96 bitrate=N/A speed=15.7x    frame=19465 fps=377 q=-0.0 size=N/A time=00:13:31.85 bitrate=N/A speed=15.7x    frame=19656 fps=377 q=-0.0 size=N/A time=00:13:39.81 bitrate=N/A speed=15.7x    frame=19807 fps=376 q=-0.0 size=N/A time=00:13:46.11 bitrate=N/A speed=15.7x    frame=19995 fps=376 q=-0.0 size=N/A time=00:13:53.95 bitrate=N/A speed=15.7x    frame=20207 fps=376 q=-0.0 size=N/A time=00:14:02.80 bitrate=N/A speed=15.7x    frame=20407 fps=377 q=-0.0 size=N/A time=00:14:11.14 bitrate=N/A speed=15.7x    frame=20580 fps=376 q=-0.0 size=N/A time=00:14:18.35 bitrate=N/A speed=15.7x    frame=20773 fps=376 q=-0.0 size=N/A time=00:14:26.40 bitrate=N/A speed=15.7x    frame=20982 fps=377 q=-0.0 size=N/A time=00:14:35.12 bitrate=N/A speed=15.7x    frame=21200 fps=377 q=-0.0 size=N/A time=00:14:44.21 bitrate=N/A speed=15.7x    frame=21408 fps=377 q=-0.0 size=N/A time=00:14:52.89 bitrate=N/A speed=15.7x    frame=21627 fps=378 q=-0.0 size=N/A time=00:15:02.02 bitrate=N/A speed=15.7x    frame=21825 fps=378 q=-0.0 size=N/A time=00:15:10.28 bitrate=N/A speed=15.7x    frame=22022 fps=378 q=-0.0 size=N/A time=00:15:18.50 bitrate=N/A speed=15.8x    frame=22249 fps=378 q=-0.0 size=N/A time=00:15:27.96 bitrate=N/A speed=15.8x    frame=22472 fps=379 q=-0.0 size=N/A time=00:15:37.26 bitrate=N/A speed=15.8x    frame=22692 fps=379 q=-0.0 size=N/A time=00:15:46.44 bitrate=N/A speed=15.8x    frame=22909 fps=379 q=-0.0 size=N/A time=00:15:55.49 bitrate=N/A speed=15.8x    frame=23124 fps=380 q=-0.0 size=N/A time=00:16:04.46 bitrate=N/A speed=15.8x    frame=23355 fps=380 q=-0.0 size=N/A time=00:16:14.09 bitrate=N/A speed=15.9x    frame=23560 fps=380 q=-0.0 size=N/A time=00:16:22.64 bitrate=N/A speed=15.9x    frame=23770 fps=381 q=-0.0 size=N/A time=00:16:31.40 bitrate=N/A speed=15.9x    frame=23973 fps=381 q=-0.0 size=N/A time=00:16:39.87 bitrate=N/A speed=15.9x    frame=24191 fps=381 q=-0.0 size=N/A time=00:16:48.96 bitrate=N/A speed=15.9x    frame=24393 fps=381 q=-0.0 size=N/A time=00:16:57.39 bitrate=N/A speed=15.9x    frame=24612 fps=382 q=-0.0 size=N/A time=00:17:06.52 bitrate=N/A speed=15.9x    frame=24812 fps=382 q=-0.0 size=N/A time=00:17:14.86 bitrate=N/A speed=15.9x    frame=25035 fps=382 q=-0.0 size=N/A time=00:17:24.16 bitrate=N/A speed=15.9x    frame=25248 fps=382 q=-0.0 size=N/A time=00:17:33.05 bitrate=N/A speed=15.9x    frame=25446 fps=382 q=-0.0 size=N/A time=00:17:41.31 bitrate=N/A speed=15.9x    frame=25633 fps=382 q=-0.0 size=N/A time=00:17:49.10 bitrate=N/A speed=15.9x    frame=25854 fps=382 q=-0.0 size=N/A time=00:17:58.32 bitrate=N/A speed=  16x    frame=26066 fps=383 q=-0.0 size=N/A time=00:18:07.16 bitrate=N/A speed=  16x    frame=26275 fps=383 q=-0.0 size=N/A time=00:18:15.88 bitrate=N/A speed=  16x    frame=26473 fps=383 q=-0.0 size=N/A time=00:18:24.14 bitrate=N/A speed=  16x    frame=26661 fps=383 q=-0.0 size=N/A time=00:18:31.98 bitrate=N/A speed=  16x    frame=26884 fps=383 q=-0.0 size=N/A time=00:18:41.28 bitrate=N/A speed=  16x    frame=27096 fps=383 q=-0.0 size=N/A time=00:18:50.12 bitrate=N/A speed=  16x    frame=27329 fps=384 q=-0.0 size=N/A time=00:18:59.84 bitrate=N/A speed=  16x    frame=27532 fps=384 q=-0.0 size=N/A time=00:19:08.31 bitrate=N/A speed=  16x    frame=27744 fps=384 q=-0.0 size=N/A time=00:19:17.15 bitrate=N/A speed=  16x    frame=27957 fps=384 q=-0.0 size=N/A time=00:19:26.03 bitrate=N/A speed=  16x    frame=28155 fps=384 q=-0.0 size=N/A time=00:19:34.29 bitrate=N/A speed=  16x    frame=28358 fps=384 q=-0.0 size=N/A time=00:19:42.76 bitrate=N/A speed=  16x    frame=28550 fps=384 q=-0.0 size=N/A time=00:19:50.77 bitrate=N/A speed=  16x    frame=28747 fps=384 q=-0.0 size=N/A time=00:19:58.98 bitrate=N/A speed=  16x    frame=28921 fps=384 q=-0.0 size=N/A time=00:20:06.24 bitrate=N/A speed=  16x    frame=29113 fps=384 q=-0.0 size=N/A time=00:20:14.25 bitrate=N/A speed=  16x    frame=29299 fps=384 q=-0.0 size=N/A time=00:20:22.01 bitrate=N/A speed=  16x    frame=29460 fps=383 q=-0.0 size=N/A time=00:20:28.72 bitrate=N/A speed=  16x    frame=29628 fps=383 q=-0.0 size=N/A time=00:20:35.73 bitrate=N/A speed=  16x    frame=29780 fps=382 q=-0.0 size=N/A time=00:20:42.07 bitrate=N/A speed=15.9x    frame=29952 fps=382 q=-0.0 size=N/A time=00:20:49.24 bitrate=N/A speed=15.9x    frame=30171 fps=382 q=-0.0 size=N/A time=00:20:58.38 bitrate=N/A speed=15.9x    frame=30379 fps=382 q=-0.0 size=N/A time=00:21:07.05 bitrate=N/A speed=15.9x    frame=30572 fps=382 q=-0.0 size=N/A time=00:21:15.10 bitrate=N/A speed=15.9x    frame=30766 fps=382 q=-0.0 size=N/A time=00:21:23.19 bitrate=N/A speed=15.9x    frame=30942 fps=382 q=-0.0 size=N/A time=00:21:30.53 bitrate=N/A speed=15.9x    frame=31122 fps=382 q=-0.0 size=N/A time=00:21:38.04 bitrate=N/A speed=15.9x    frame=31299 fps=381 q=-0.0 size=N/A time=00:21:45.42 bitrate=N/A speed=15.9x    frame=31475 fps=381 q=-0.0 size=N/A time=00:21:52.76 bitrate=N/A speed=15.9x    frame=31673 fps=381 q=-0.0 size=N/A time=00:22:01.02 bitrate=N/A speed=15.9x    frame=31863 fps=381 q=-0.0 size=N/A time=00:22:08.95 bitrate=N/A speed=15.9x    frame=32055 fps=381 q=-0.0 size=N/A time=00:22:16.96 bitrate=N/A speed=15.9x    frame=32200 fps=380 q=-0.0 size=N/A time=00:22:23.00 bitrate=N/A speed=15.9x    frame=32356 fps=380 q=-0.0 size=N/A time=00:22:29.51 bitrate=N/A speed=15.8x    frame=32522 fps=380 q=-0.0 size=N/A time=00:22:36.43 bitrate=N/A speed=15.8x    frame=32689 fps=379 q=-0.0 size=N/A time=00:22:43.40 bitrate=N/A speed=15.8x    frame=32854 fps=379 q=-0.0 size=N/A time=00:22:50.28 bitrate=N/A speed=15.8x    frame=32980 fps=378 q=-0.0 size=N/A time=00:22:55.54 bitrate=N/A speed=15.8x    frame=33096 fps=377 q=-0.0 size=N/A time=00:23:00.37 bitrate=N/A speed=15.7x    frame=33229 fps=377 q=-0.0 size=N/A time=00:23:05.92 bitrate=N/A speed=15.7x    frame=33350 fps=376 q=-0.0 size=N/A time=00:23:10.97 bitrate=N/A speed=15.7x    frame=33483 fps=375 q=-0.0 size=N/A time=00:23:16.52 bitrate=N/A speed=15.6x    frame=33657 fps=375 q=-0.0 size=N/A time=00:23:23.77 bitrate=N/A speed=15.6x    frame=33793 fps=374 q=-0.0 size=N/A time=00:23:29.44 bitrate=N/A speed=15.6x    frame=33890 fps=373 q=-0.0 size=N/A time=00:23:33.49 bitrate=N/A speed=15.6x    frame=34027 fps=373 q=-0.0 size=N/A time=00:23:39.20 bitrate=N/A speed=15.5x    frame=34157 fps=372 q=-0.0 size=N/A time=00:23:44.63 bitrate=N/A speed=15.5x    frame=34315 fps=371 q=-0.0 size=N/A time=00:23:51.22 bitrate=N/A speed=15.5x    frame=34491 fps=371 q=-0.0 size=N/A time=00:23:58.56 bitrate=N/A speed=15.5x    [Parsed_psnr_15 @ 0000019dba502a40] PSNR y:47.754700 u:49.780063 v:49.753947 average:48.327717 min:37.112901 max:inf
[out#0/null @ 0000019db34f8cc0] video:14858KiB audio:270432KiB subtitle:0KiB other streams:0KiB global headers:0KiB muxing overhead: unknown
frame=34579 fps=371 q=-0.0 Lsize=N/A time=00:24:02.23 bitrate=N/A speed=15.5x    
